# AST/ASF file generated using VICON BodyLanguage
# -----------------------------------------------
:version 1.10
:name VICON
:units
  mass 1.0
  length 0.45
  angle deg
:documentation
   .ast/.asf automatically generated from VICON data using
   VICON BodyBuilder and BodyLanguage model FoxedUp or BRILLIANT.MOD
:root
   order TX TY TZ RX RY RZ
   axis XYZ
   position 0 0 0  
   orientation 0 0 0 
:bonedata
  begin
     id 1 
     name lhipjoint
     direction 0.57768 -0.667037 0.470475 
     length 2.36008 
     axis 0 0 0  XYZ
  end
  begin
     id 2 
     name lfemur
     direction 0.34202 -0.939693 0  
     length 6.97235  
     axis 0 0 20  XYZ
    dof rx ry rz
    limits (-160.0 20.0)
           (-70.0 70.0)
           (-60.0 70.0)
  end
  begin
     id 3 
     name ltibia
     direction 0.34202 -0.939693 0   
     length 6.93428   
     axis 0 0 20   XYZ
    dof rx
    limits (-10.0 170.0)
  end
  begin
     id 4 
     name lfoot
     direction 0.133018 -0.365463 0.921272   
     length 2.18603   
     axis -90 7.62852e-016 20   XYZ
    dof rx rz
    limits (-45.0 90.0)
           (-70.0 20.0)
  end
  begin
     id 5 
     name ltoes
     direction 1.53519e-011 -4.22055e-011 1   
     length 1.07924   
     axis -90 7.62852e-016 20   XYZ
    dof rx
    limits (-90.0 20.0)
  end
  begin
     id 6 
     name rhipjoint
     direction -0.577712 -0.667019 0.470462   
     length 2.36015  
     axis 0 0 0  XYZ 
  end
  begin
     id 7 
     name rfemur
     direction -0.34202 -0.939693 0   
     length 6.71195   
     axis 0 0 -20   XYZ
    dof rx ry rz
    limits (-160.0 20.0)
           (-70.0 70.0)
           (-70.0 60.0)
  end
  begin
     id 8 
     name rtibia
     direction -0.34202 -0.939693 0   
     length 7.04592   
     axis 0 0 -20   XYZ
    dof rx
    limits (-10.0 170.0)
 end
 begin
     id 9 
     name rfoot
     direction -0.113796 -0.312651 0.943027   
     length 2.03846  
     axis -90 -7.62852e-016 -20   XYZ
    dof rx rz
    limits (-45.0 90.0)
           (-20.0 70.0)
  end
  begin
     id 10 
     name rtoes
     direction -1.53586e-011 -4.218e-011 1   
     length 1.01562   
     axis -90 -7.62852e-016 -20   XYZ
    dof rx
    limits (-90.0 20.0)
  end
  begin
     id 11 
     name lowerback
     direction -0.0417299 0.991937 -0.119667   
     length 2.05257   
     axis 0 0 0   XYZ
    dof rx ry rz
    limits (-20.0 45.0)
           (-30.0 30.0)
           (-30.0 30.0)
  end
  begin
     id 12 
     name upperback
     direction -0.00017666 0.999999 0.00105178   
     length 2.05693   
     axis 0 0 0   XYZ
    dof rx ry rz
    limits (-20.0 45.0)
           (-30.0 30.0)
           (-30.0 30.0)
  end
  begin
     id 13 
     name thorax
     direction 0.0185169 0.998203 0.0569866   
     length 2.0932   
     axis 0 0 0   XYZ
    dof rx ry rz
    limits (-20.0 45.0)
           (-30.0 30.0)
           (-30.0 30.0)
  end
  begin
     id 14 
     name lowerneck
     direction -0.0212406 0.982645 0.184277   
     length 1.72509   
     axis 0 0 0   XYZ
    dof rx ry rz
    limits (-20.0 45.0)
           (-30.0 30.0)
           (-30.0 30.0)
  end
  begin
     id 15 
     name upperneck
     direction 0.00528579 0.965323 -0.261004   
     length 1.76294   
     axis 0 0 0   XYZ
    dof rx ry rz
    limits (-20.0 45.0)
           (-30.0 30.0)
           (-30.0 30.0)
  end
  begin
     id 16
     name head
     direction 0.00695421 0.994078 -0.108445  
     length 1.78678  
     axis 0 0 0   XYZ
    dof rx ry rz
    limits (-20.0 45.0)
           (-30.0 30.0)
           (-30.0 30.0)
  end
  begin
     id 17 
     name lclavicle
     direction 0.97277 0.211305 -0.095232  
     length 3.84823  
     axis 0 0 0   XYZ
    dof ry rz
    limits (-20.0 10.0)
           (0.0 20.0)
  end
  begin
     id 18 
     name lhumerus
     direction 1 -4.48957e-011 -1.98313e-027   
     length 4.97185   
     axis 180 -30 -90   XYZ
    dof rx ry rz
    limits (-60.0 90.0)
           (-90.0 90.0)
           (-90.0 90.0)
  end
  begin
     id 19
     name lradius
     direction 1 -4.4898e-011 7.31063e-027   
     length 3.35811   
     axis 180 -30 -90   XYZ
    dof rx
    limits (-10.0 170.0)
  end
  begin
     id 20
     name lwrist
     direction 1 -4.48938e-011 9.95048e-027   
     length 1.67905   
     axis -8.75986e-015 90 90   XYZ
    dof ry
    limits (-180.0 0.0)
 end
  begin
     id 21 
     name lhand
     direction 1 -4.4901e-011 1.9901e-026   
     length 0.622776   
     axis -1.26985e-014 90 90   XYZ
    dof rx rz
    limits (-90.0 90.0)
           (-45.0 45.0)
  end
  begin
     id 22 
     name lfingers
     direction 1 -4.48961e-011 3.98019e-026   
     length 0.502098   
     axis -2.5397e-014 90 90   XYZ
    dof rx
    limits (0.0 90.0)
  end
  begin
     id 23
     name lthumb
     direction 0.707107 -6.34933e-011 0.707107   
     length 0.720915   
     axis -90 45 2.85299e-015   XYZ
    dof rx rz
    limits (-45.0 45.0)
           (-45.0 45.0)
  end
  begin
     id 24 
     name rclavicle
     direction -0.990867 0.133739 -0.0172226   
     length 3.78845  
     axis 0 0 0   XYZ 
    dof ry rz
    limits (-10.0 20.0)
           (-20.0 0.0)
  end
  begin
     id 25 
     name rhumerus
     direction -1 -4.48972e-011 -1.99267e-027  
     length 4.96493   
     axis 180 30 90   XYZ
    dof rx ry rz
    limits (-90.0 60.0)
           (-90.0 90.0)
           (-90.0 90.0)
  end
  begin
     id 26 
     name rradius
     direction -1 -4.48969e-011 8.96093e-027   
     length 3.34929   
     axis 180 30 90   XYZ
    dof rx
    limits (-10.0 170.0)
  end
  begin
     id 27 
     name rwrist
     direction -1 -4.48953e-011 9.95048e-027   
     length 1.67464   
     axis -8.75986e-015 -90 -90   XYZ
    dof ry
    limits (-180.0 0.0)
  end
  begin
     id 28
     name rhand
     direction -1 -4.49001e-011 1.9901e-026   
     length 0.638041   
     axis -1.26985e-014 -90 -90   XYZ
    dof rx rz
    limits (-90.0 90.0)
           (-45.0 45.0)
  end
  begin
     id 29
     name rfingers
     direction -1 -4.48967e-011 3.98019e-026   
     length 0.514405   
     axis -2.5397e-014 -90 -90   XYZ
    dof rx
    limits (0.0 90.0)
  end
  begin
     id 30
     name rthumb
     direction -0.707107 -6.34904e-011 0.707107   
     length 0.738586   
     axis -90 -45 -2.85299e-015   XYZ
    dof rx rz
    limits (-45.0 45.0)
           (-45.0 45.0)
  end
:hierarchy
  begin
    root lhipjoint rhipjoint lowerback
    lhipjoint lfemur
    lfemur ltibia
    ltibia lfoot
    lfoot ltoes
    rhipjoint rfemur
    rfemur rtibia
    rtibia rfoot
    rfoot rtoes
    lowerback upperback
    upperback thorax
    thorax lowerneck lclavicle rclavicle
    lowerneck upperneck
    upperneck head
    lclavicle lhumerus
    lhumerus lradius
    lradius lwrist
    lwrist lhand lthumb
    lhand lfingers
    rclavicle rhumerus
    rhumerus rradius
    rradius rwrist
    rwrist rhand rthumb
    rhand rfingers
  end

#!OML:ASF E:\Mandelcareful walks\Project 1\Capture day 1\Session 1\Subject1.ASF
:FULLY-SPECIFIED
:DEGREES
347
root 9.99283 16.1084 8.91115 -499.424 -56.5179 -213.034
lowerback 5.22587 -3.10645 -10.4866
upperback 3.60717 -4.75985 -1.87785
thorax 1.52603 -2.65558 4.04321
lowerneck -31.9456 4.53291 -3.16764
upperneck 31.3088 10.7439 -7.45532
head 17.1742 2.45313 -0.370014
rclavicle 3.69739e-014 1.35174e-014
rhumerus -57.2077 10.2133 -84.6817
rradius 63.2748
rwrist -32.1849
rhand -7.30572 -20.8216
rfingers 7.12502
rthumb 18.5768 -49.9546
lclavicle 3.69739e-014 1.35174e-014
lhumerus -17.4633 -19.9198 65.2539
lradius 93.954
lwrist 28.0952
lhand -28.9122 -22.104
lfingers 7.12502
lthumb -2.26695 7.86367
rfemur -54.6773 -20.5549 20.2059
rtibia 49.8219
rfoot -15.8788 -16.917
rtoes 14.0302
lfemur 14.1494 -3.2306 -22.9921
ltibia 29.6855
lfoot 9.32506 17.5227
ltoes -12.4888
348
root 9.53939 15.9635 8.62179 -502.692 -55.2531 -210.999
lowerback 6.50212 -2.52335 -9.55004
upperback 4.09858 -4.09988 -1.90803
thorax 1.15333 -2.32215 3.55078
lowerneck -31.4601 4.77763 -3.11023
upperneck 30.7224 11.254 -8.25599
head 16.8812 2.58008 -0.613944
rclavicle -7.55382e-015 -2.3059e-014
rhumerus -54.142 10.0908 -84.5791
rradius 62.3846
rwrist -31.9202
rhand -9.81617 -21.2082
rfingers 7.12502
rthumb 16.1607 -50.5545
lclavicle -7.55382e-015 -2.3059e-014
lhumerus -18.8057 -22.0756 67.1306
lradius 90.071
lwrist 28.459
lhand -27.4162 -21.03
lfingers 7.12502
lthumb -0.822107 8.9482
rfemur -52.4337 -21.1258 21.0986
rtibia 51.4617
rfoot -16.6914 -18.2954
rtoes 17.0463
lfemur 12.4831 -2.03361 -22.9335
ltibia 37.9414
lfoot 7.87671 13.4803
ltoes -16.7045
349
root 9.10801 15.8106 8.3371 -507.884 -54.472 -207.043
lowerback 8.56712 -1.95501 -7.30981
upperback 4.65051 -3.42435 -1.68096
thorax 0.359937 -1.94613 2.61648
lowerneck -30.9005 5.12558 -2.80916
upperneck 29.9796 11.8109 -9.19628
head 16.5393 2.75312 -0.940009
rclavicle 3.61788e-014 -2.54444e-014
rhumerus -51.0755 10.1409 -84.7592
rradius 62.0712
rwrist -31.5574
rhand -10.617 -21.3888
rfingers 7.12502
rthumb 15.3894 -50.796
lclavicle 3.61788e-014 -2.54444e-014
lhumerus -20.4311 -23.9009 69.027
lradius 86.0231
lwrist 28.6622
lhand -26.7373 -18.3754
lfingers 7.12502
lthumb -0.166317 11.6042
rfemur -49.2914 -20.6559 22.5824
rtibia 53.4138
rfoot -19.4883 -15.6626
rtoes 18.6845
lfemur 10.8987 -0.540408 -21.2353
ltibia 46.4441
lfoot 7.57949 10.3005
ltoes -14.8097
350
root 8.69013 15.6415 8.06297 -512.642 -53.3946 -203.51
lowerback 10.9723 -1.36619 -5.16273
upperback 4.91255 -2.67113 -1.46636
thorax -0.860117 -1.52431 1.68297
lowerneck -29.6304 5.33724 -2.68858
upperneck 29.085 12.1722 -10.2387
head 15.9766 2.84581 -1.32813
rclavicle 4.77083e-014 -1.43125e-014
rhumerus -48.482 10.2775 -84.7804
rradius 61.7994
rwrist -30.6199
rhand -10.8063 -20.7787
rfingers 7.12502
rthumb 15.2071 -50.1998
lclavicle 4.77083e-014 -1.43125e-014
lhumerus -22.8386 -25.9083 71.5578
lradius 81.7091
lwrist 28.5243
lhand -26.4886 -17.0145
lfingers 7.12502
lthumb 0.0738407 12.9652
rfemur -46.0699 -19.6334 23.4206
rtibia 55.3628
rfoot -23.2199 -15.4788
rtoes 19.8353
lfemur 8.75676 0.997302 -19.6172
ltibia 55.1772
lfoot 6.01884 6.80309
ltoes -21.2239
351
root 8.27536 15.466 7.79862 -516.852 -52.2708 -200.373
lowerback 13.4158 -0.938136 -3.03305
upperback 5.4203 -2.05335 -1.35514
thorax -1.77039 -1.21077 0.601975
lowerneck -29.3789 5.6334 -2.42042
upperneck 28.111 12.636 -11.1328
head 15.6125 3.00708 -1.62489
rclavicle -6.91771e-014 -3.49861e-014
rhumerus -45.2382 10.858 -84.9754
rradius 61.8565
rwrist -29.6157
rhand -11.6963 -20.9579
rfingers 7.12502
rthumb 14.3496 -50.442
lclavicle -6.91771e-014 -3.49861e-014
lhumerus -24.8457 -27.2241 73.9557
lradius 77.0591
lwrist 27.6576
lhand -24.455 -15.5531
lfingers 7.12502
lthumb 2.03791 14.4169
rfemur -43.1343 -18.6807 24.1583
rtibia 57.1408
rfoot -26.34 -15.9437
rtoes 19.2146
lfemur 5.99244 2.4728 -18.0015
ltibia 63.83
lfoot 5.36147 3.59676
ltoes -19.5446
352
root 7.86503 15.3022 7.53761 -520.542 -51.1758 -197.343
lowerback 16.0607 -0.584538 -1.09913
upperback 5.55751 -1.43813 -0.99475
thorax -3.09559 -0.903077 -0.148807
lowerneck -28.8849 5.92559 -2.49353
upperneck 27.0713 13.1488 -11.8962
head 15.1481 3.18762 -1.79813
rclavicle -1.82882e-014 7.95139e-015
rhumerus -41.7721 11.6869 -84.8452
rradius 60.6856
rwrist -28.267
rhand -12.1735 -20.1468
rfingers 7.12502
rthumb 13.8898 -49.6629
lclavicle -1.82882e-014 7.95139e-015
lhumerus -27.4349 -27.5723 77.1437
lradius 72.3766
lwrist 25.8305
lhand -23.333 -13.5147
lfingers 7.12502
lthumb 3.12152 16.4422
rfemur -40.5721 -17.7896 25.0612
rtibia 58.7447
rfoot -28.955 -16.0478
rtoes 17.6046
lfemur 2.31657 3.94399 -16.2353
ltibia 72.1929
lfoot 4.26901 1.2932
ltoes -25.6274
